<?xml version="1.0" encoding="utf-8"?>
<!-- Generator: Adobe Illustrator 22.0.1, SVG Export Plug-In . SVG Version: 6.00 Build 0)  -->
<svg version="1.1" id="Layer_1" xmlns="http://www.w3.org/2000/svg" xmlns:xlink="http://www.w3.org/1999/xlink" x="0px" y="0px"
	 viewBox="0 0 16 16" style="enable-background:new 0 0 16 16;" xml:space="preserve">
<style type="text/css">
	.st0{fill:#FFDE11;}
	.st1{fill:#010101;}
	.st2{fill:#FFFFFF;}
	.st3{display:none;fill:#FFFFFF;}
</style>
<path class="st3" d="M11.8,9.2c0.4,0,0.7,0.1,0.9,0.4c0.3,0.3,0.4,0.6,0.4,0.9c0,0.4-0.1,0.7-0.4,0.9c-0.3,0.3-0.6,0.4-0.9,0.4
	c-0.4,0-0.7-0.1-1-0.4c-0.2-0.2-0.4-0.6-0.4-1c0-0.4,0.1-0.7,0.4-1S11.4,9.2,11.8,9.2z"/>
<g>
	<rect x="0" class="st0" width="16" height="16"/>
	<g>
		<path class="st1" d="M9.7,8.5v5.6H8V8.5H9.7z M12.8,8.5L11.4,11l1.5,3.1H11L9.7,11l1.4-2.5C11.2,8.5,12.8,8.5,12.8,8.5z"/>
		<rect x="13.6" y="12.7" class="st2" width="1.4" height="1.4"/>
	</g>
</g>
</svg>
