<?xml version="1.0" encoding="utf-8"?>
<!-- Generator: Adobe Illustrator 22.0.1, SVG Export Plug-In . SVG Version: 6.00 Build 0)  -->
<svg version="1.1" id="Layer_1" xmlns="http://www.w3.org/2000/svg" xmlns:xlink="http://www.w3.org/1999/xlink" x="0px" y="0px"
	 viewBox="0 0 32 32" style="enable-background:new 0 0 32 32;" xml:space="preserve">
<style type="text/css">
	.st0{fill:#010101;}
</style>
<g>
	<path class="st0" d="M9,10.7H4.1v4.9H9V10.7z M6.8,15.4l-1.1-1.6l-0.4,0.4v1.1H4.5v-3.7h0.8v1.6l1.5-1.6h1l-1.5,1.6l1.6,2.1H6.8z
		 M8.7,15.4H8v-0.7h0.7V15.4z"/>
	<path class="st0" d="M30.7,5.8H1.3C0.6,5.8,0,6.3,0,7V25c0,0.7,0.6,1.2,1.2,1.2h29.5c0.7,0,1.2-0.6,1.2-1.2V7
		C32,6.3,31.4,5.8,30.7,5.8z M10,16.6H3.2V9.8H10V16.6z M28.2,23H17.9c-0.4,0-0.6-0.3-0.6-0.6c0-0.4,0.3-0.6,0.6-0.6h10.2
		c0.4,0,0.6,0.3,0.6,0.6C28.8,22.8,28.5,23,28.2,23z M28.2,20.5H23c-0.4,0-0.6-0.3-0.6-0.6c0-0.4,0.3-0.6,0.6-0.6h5.1
		c0.4,0,0.6,0.3,0.6,0.6C28.8,20.2,28.5,20.5,28.2,20.5z"/>
</g>
</svg>
