<?xml version="1.0" encoding="utf-8"?>
<!-- Generator: Adobe Illustrator 22.0.1, SVG Export Plug-In . SVG Version: 6.00 Build 0)  -->
<svg version="1.1" id="Layer_1" xmlns="http://www.w3.org/2000/svg" xmlns:xlink="http://www.w3.org/1999/xlink" x="0px" y="0px"
	 viewBox="0 0 165.2 49.7" style="enable-background:new 0 0 165.2 49.7;" xml:space="preserve">
<style type="text/css">
	.st0{display:none;}
	.st1{display:inline;fill:#FFDE17;}
	.st2{display:inline;}
	.st3{fill:#FFFFFF;}
	.st4{fill:#FFDE17;}
</style>
<g class="st0">
	<circle class="st1" cx="82.6" cy="24.8" r="76.8"/>
	<g class="st2">
		<path d="M28.5,9.2v31.7h-9.4V9.2H28.5z M46.6,9.2l-8.4,14.4l8.3,17.3H35.9l-7.2-17.5l8.1-14.2L46.6,9.2L46.6,9.2z"/>
		<path d="M61.8,17.5v9.3c-0.6-0.3-1.2-0.5-1.6-0.5c-1.6,0-2.4,1.2-2.4,3.6v11h-8.7V28.2c0-3.3,0.9-6,2.7-8s4.3-3,7.3-3
			C59.9,17.2,60.7,17.3,61.8,17.5z"/>
		<path d="M100.9,30.2H87.7c-0.2-0.7-0.3-1.3-0.3-1.8c0-0.8,0.1-1.5,0.4-2.3h4.4c-0.3-1.7-1.3-2.6-2.9-2.6c-1.1,0-2,0.5-2.6,1.4
			c-0.7,0.9-1,2.1-1,3.5c0,1.5,0.3,2.7,1,3.6s1.5,1.4,2.6,1.4c0.9,0,1.7-0.4,2.5-1.3l4.9,5.9c-2.3,1.8-4.9,2.7-7.7,2.7
			c-3.4,0-6.3-1.2-8.7-3.5c-2.3-2.3-3.5-5.2-3.5-8.6s1.2-6.3,3.5-8.6c2.4-2.3,5.3-3.5,8.7-3.5c3.4,0,6.2,1.1,8.5,3.4
			s3.4,5.1,3.4,8.4C101,28.9,101,29.5,100.9,30.2z"/>
		<path d="M112.2,8.8v8.9h3.9v9.2h-3.9c0,1.8,0.3,3.1,0.9,3.8c0.6,0.7,1.6,1,3.2,1v9.1c-0.4,0-0.8,0-1,0c-2,0-3.8-0.5-5.6-1.4
			c-1.7-0.9-3.1-2.1-4.2-3.7c-1.3-2-2-4.6-2-7.9v-19C103.5,8.8,112.2,8.8,112.2,8.8z"/>
		<rect x="120.4" y="26.7" width="8.7" height="14.2"/>
		<rect x="65.1" y="33.8" width="8.7" height="7.1"/>
		<path d="M124.8,16.7c1.2,0,2.2,0.4,3.1,1.2c0.9,0.8,1.3,1.8,1.3,2.9c0,1.2-0.4,2.2-1.2,3s-1.9,1.2-3.1,1.2c-1.3,0-2.3-0.4-3.1-1.2
			c-0.8-0.8-1.2-1.8-1.2-3c0-1.1,0.4-2.1,1.3-2.9C122.6,17.2,123.6,16.7,124.8,16.7z"/>
		<path class="st3" d="M140.6,29.8c1.5,0,2.8,0.5,3.9,1.6s1.6,2.4,1.6,3.9s-0.5,2.8-1.6,3.9s-2.4,1.6-3.9,1.6
			c-1.6,0-2.9-0.5-3.9-1.5s-1.5-2.3-1.5-3.9c0-1.5,0.5-2.9,1.6-3.9C137.8,30.4,139.1,29.8,140.6,29.8z"/>
		<path d="M69.5,16.7c1.2,0,2.2,0.4,3.1,1.2c0.9,0.8,1.3,1.8,1.3,2.9c0,1.2-0.4,2.2-1.2,3S70.8,25,69.6,25c-1.3,0-2.3-0.4-3.1-1.2
			s-1.2-1.8-1.2-3c0-1.1,0.4-2.1,1.3-2.9C67.3,17.2,68.3,16.7,69.5,16.7z"/>
	</g>
</g>
<g>
	<rect class="st4" width="165.2" height="49.7"/>
	<g>
		<rect x="124.4" y="26.9" width="9.6" height="15.7"/>
		<path d="M129.2,15.9c1.3,0,2.4,0.5,3.4,1.4s1.4,2,1.4,3.2c0,1.3-0.4,2.4-1.3,3.3s-2,1.3-3.5,1.3c-1.4,0-2.6-0.4-3.5-1.3
			s-1.3-2-1.3-3.3c0-1.2,0.5-2.3,1.4-3.2C126.8,16.3,127.9,15.9,129.2,15.9z"/>
		<path d="M22.8,7.5v35H12.4v-35H22.8z M42.8,7.5l-9.2,15.9l9.2,19.2H31.1l-7.9-19.4l9-15.7C32.2,7.5,42.8,7.5,42.8,7.5z"/>
		<path d="M59.6,16.7V27c-0.7-0.4-1.3-0.6-1.8-0.6c-1.7,0-2.6,1.3-2.6,4v12.1h-9.6v-14c0-3.7,1-6.6,3-8.8s4.7-3.3,8.1-3.3
			C57.4,16.4,58.4,16.5,59.6,16.7z"/>
		<path d="M102.8,30.8H88.2c-0.2-0.7-0.3-1.4-0.3-2c0-0.9,0.2-1.7,0.5-2.5h4.9c-0.3-1.9-1.4-2.8-3.2-2.8c-1.2,0-2.2,0.5-2.9,1.5
			c-0.8,1-1.1,2.3-1.1,3.9c0,1.7,0.4,3,1.1,4c0.7,1,1.7,1.5,2.9,1.5c1,0,1.9-0.5,2.8-1.4l5.5,6.6c-2.6,2-5.4,3-8.5,3
			c-3.8,0-7-1.3-9.6-3.8s-3.9-5.7-3.9-9.5c0-3.7,1.3-6.9,3.9-9.5s5.8-3.9,9.6-3.9c3.7,0,6.8,1.3,9.4,3.8s3.8,5.6,3.8,9.3
			C103,29.4,102.9,30,102.8,30.8z"/>
		<path d="M115.4,7.1v9.8h4.3V27h-4.3c0,2,0.3,3.4,1,4.2c0.7,0.8,1.8,1.2,3.5,1.2v10.1c-0.5,0-0.9,0-1.1,0c-2.2,0-4.2-0.5-6.1-1.5
			s-3.5-2.4-4.6-4.1c-1.5-2.2-2.2-5.1-2.2-8.8v-21L115.4,7.1L115.4,7.1z"/>
		<rect x="63.4" y="34.7" width="9.6" height="7.8"/>
		<path d="M68.2,15.9c1.3,0,2.4,0.5,3.4,1.4s1.4,2,1.4,3.2c0,1.3-0.4,2.4-1.3,3.3s-2,1.3-3.5,1.3c-1.4,0-2.6-0.4-3.5-1.3
			s-1.3-2-1.3-3.3c0-1.2,0.5-2.3,1.4-3.2C65.7,16.3,66.9,15.9,68.2,15.9z"/>
		<rect x="140.8" y="30.5" class="st3" width="12" height="12"/>
	</g>
</g>
</svg>
