<?xml version="1.0" encoding="utf-8"?>
<!-- Generator: Adobe Illustrator 22.0.1, SVG Export Plug-In . SVG Version: 6.00 Build 0)  -->
<svg version="1.1" id="Layer_1" xmlns="http://www.w3.org/2000/svg" xmlns:xlink="http://www.w3.org/1999/xlink" x="0px" y="0px"
	 viewBox="0 0 32 32" style="enable-background:new 0 0 32 32;" xml:space="preserve">
<g>
	<path d="M18.6,13.4h-5.3v5.3h5.3V13.4z M16.3,18.4L15,16.7l-0.5,0.5v1.2h-0.9v-4h0.9v1.7l1.6-1.7h1.1l-1.6,1.7l1.7,2.3H16.3z
		 M18.3,18.4h-0.8v-0.8h0.8V18.4z"/>
	<path d="M22.5,2.7h-1.8c0,0-0.4,4.2-4.7,4.2h0c-4.3,0-4.7-4.2-4.7-4.2H9.5L0,7.9l2.4,6.6L7,12.8v16.5H16H16H25V12.8l4.6,1.7L32,7.9
		L22.5,2.7z M19.7,19.7h-7.3v-7.3h7.3V19.7z"/>
</g>
</svg>
