<svg id="Layer_1" data-name="Layer 1" xmlns="http://www.w3.org/2000/svg" viewBox="0 0 62.33 30.78"><defs><style>.cls-1{fill:#fff;}</style></defs><title>eye-code</title><circle class="cls-1" cx="31.15" cy="15.27" r="6.38"/><path class="cls-1" d="M62,30.52l0-.05-1-.87-.19-.19h0C54.36,23.48,47.7,19.55,41,17.77a33.7,33.7,0,0,0-18.54.29C15.72,20.09,8.82,24.27,2,30.45c-.39.34-.8.72-1.2,1.09L2,32.78,2,32.84c.35.35.71.66,1.06,1l.06.06h0c6.63,6.21,13.36,10.34,20,12.22A32.13,32.13,0,0,0,32,47.39a31.94,31.94,0,0,0,8.83-1.26c7.09-2,14.22-6.48,21.15-13.28.39-.36.79-.75,1.18-1.14ZM44.1,31.88A12.12,12.12,0,1,1,29.87,20a30.28,30.28,0,0,1,3.81-.06A12.12,12.12,0,0,1,44.1,31.88Zm-27.33,0a15.15,15.15,0,0,0,3.6,9.82,50.47,50.47,0,0,1-14.86-10,53.7,53.7,0,0,1,14.62-9.36A15.14,15.14,0,0,0,16.77,31.88Zm30.43,0A15.12,15.12,0,0,0,43.58,22a48.51,48.51,0,0,1,14.93,9.62A50.49,50.49,0,0,1,43.59,41.72,15.18,15.18,0,0,0,47.2,31.88Z" transform="translate(-0.83 -16.61)"/></svg>