<svg id="Layer_1" data-name="Layer 1" xmlns="http://www.w3.org/2000/svg" viewBox="0 0 64 64"><title>Identity code</title><path d="M32,2A30,30,0,1,1,2,32,30.09,30.09,0,0,1,32,2m0-2A32,32,0,1,0,64,32,32,32,0,0,0,32,0Z"/><polygon points="50.8 48 13.2 48 13.2 21.4 28.8 21.4 28.8 22.9 14.8 22.9 14.8 46.5 49.2 46.5 49.2 22.9 35.8 22.9 35.8 21.4 50.8 21.4 50.8 48"/><path d="M34.3,18.2v6.3H30.2V18.2h4.1m1.5-1.5H28.7V26h7.1V16.7Z"/><rect x="32.8" y="29.2" width="14" height="1.6"/><rect x="32.8" y="32.3" width="10.9" height="1.6"/><rect x="32.8" y="35.5" width="8.5" height="1.6"/><rect x="32.7" y="38.6" width="11" height="1.6"/><path d="M23.8,28.1a1.83,1.83,0,0,1,1.4.7,3.57,3.57,0,0,1,.4,2.7v.2a3.88,3.88,0,0,1-.9,2.6A2.06,2.06,0,0,0,24,36c.1,1.3,1.4,2.2,3,3.3a13,13,0,0,1,2.3,1.8H18.6a20.28,20.28,0,0,1,2.3-1.8c1.6-1.1,2.9-2,3-3.3a2.34,2.34,0,0,0-.7-1.7,4.29,4.29,0,0,1-.9-2.6v-.2c-.1-.9-.2-2.1.4-2.7a1.1,1.1,0,0,1,1.1-.7m0-1.6s-3.9,0-3.2,5.1c0,0-.1,2.5,1.4,3.8s-5.3,3.6-5.3,5.9v1.2H31V41.3c0-2.3-6.7-4.6-5.3-5.9s1.4-3.8,1.4-3.8c.8-5.1-3.3-5.1-3.3-5.1Z"/></svg>