<svg id="Layer_1" data-name="Layer 1" xmlns="http://www.w3.org/2000/svg" viewBox="0 0 64 64"><defs><style>.cls-1{fill:#231f20;}</style></defs><title>Prints code</title><path class="cls-1" d="M32,2A30,30,0,1,1,2,32,30,30,0,0,1,32,2m0-2A32,32,0,1,0,64,32,32,32,0,0,0,32,0Z"/><path class="cls-1" d="M25.47,19.23a22.31,22.31,0,0,0,7.07,1.25,16.51,16.51,0,0,0,6.25-1.2l9.85,9.93L44.58,33.3l-1.39-1.12-2.44-2V45H23.37V29.57l-2.55,2.51-2,2-3.52-4,10.2-10.82m13.65-1.74A14.92,14.92,0,0,1,32.54,19a21.46,21.46,0,0,1-7.49-1.49L13.25,30l5.45,6.27,3.17-3.13V46.51H42.25V33.35l2.45,2,6-6.11L39.12,17.49Z"/></svg>