<?xml version="1.0" encoding="utf-8"?>
<!-- Generator: Adobe Illustrator 22.0.1, SVG Export Plug-In . SVG Version: 6.00 Build 0)  -->
<svg version="1.1" id="Layer_1" xmlns="http://www.w3.org/2000/svg" xmlns:xlink="http://www.w3.org/1999/xlink" x="0px" y="0px"
	 viewBox="0 0 64 64" style="enable-background:new 0 0 64 64;" xml:space="preserve">
<style type="text/css">
	.st0{display:none;}
	.st1{display:inline;}
</style>
<g class="st0">
	<g class="st1">
		<polygon points="50.8,48 13.2,48 13.2,21.4 28.8,21.4 28.8,22.9 14.8,22.9 14.8,46.5 49.2,46.5 49.2,22.9 35.8,22.9 35.8,21.4 
			50.8,21.4 		"/>
	</g>
	<g class="st1">
		<path d="M34.3,18.2v6.3h-4.1v-6.3H34.3 M35.8,16.7h-7.1V26h7.1V16.7L35.8,16.7z"/>
	</g>
	<g class="st1">
		<rect x="32.8" y="29.2" width="14" height="1.6"/>
	</g>
	<g class="st1">
		<rect x="32.8" y="32.3" width="10.9" height="1.6"/>
	</g>
	<g class="st1">
		<rect x="32.8" y="35.5" width="8.5" height="1.6"/>
	</g>
	<g class="st1">
		<rect x="32.7" y="38.6" width="11" height="1.6"/>
	</g>
	<path class="st1" d="M23.8,28.1c0.2,0,1,0.1,1.4,0.7c0.6,0.7,0.5,1.8,0.4,2.7l0,0.1l0,0.1c0,0.4-0.1,1.9-0.9,2.6
		C24.2,34.7,24,35.3,24,36c0.1,1.3,1.4,2.2,3,3.3c0.6,0.4,1.8,1.2,2.3,1.8h-5.3h-5.4c0.5-0.6,1.7-1.3,2.3-1.8c1.6-1.1,2.9-2,3-3.3
		c0-0.6-0.2-1.2-0.7-1.7c-0.7-0.7-0.9-2.1-0.9-2.6l0-0.1l0-0.1c-0.1-0.9-0.2-2.1,0.4-2.7C23,28.1,23.6,28.1,23.8,28.1 M23.8,26.5
		c0,0-3.9,0-3.2,5.1c0,0-0.1,2.5,1.4,3.8c1.5,1.3-5.3,3.6-5.3,5.9v1.2h7.2H31v-1.2c0-2.3-6.7-4.6-5.3-5.9c1.5-1.3,1.4-3.8,1.4-3.8
		C27.9,26.5,23.8,26.5,23.8,26.5L23.8,26.5z"/>
</g>
<g>
	<g>
		<path d="M32,2c16.5,0,30,13.5,30,30S48.5,62,32,62S2,48.5,2,32S15.5,2,32,2 M32,0C14.3,0,0,14.3,0,32s14.3,32,32,32s32-14.3,32-32
			S49.7,0,32,0L32,0z"/>
		<g class="st0">
			<circle class="st1" cx="17.8" cy="19.3" r="0.8"/>
			<circle class="st1" cx="20.2" cy="19.3" r="0.8"/>
			<circle class="st1" cx="22.5" cy="19.3" r="0.8"/>
			<g class="st1">
				<path d="M15.4,22.5L15.4,22.5l33.2,0v0h1.5v-6.3H13.9v6.3H15.4z M15.4,17.7h33.2V21H15.4V17.7z"/>
				<polygon points="48.6,25.4 48.6,46.3 15.4,46.3 15.4,25.4 13.9,25.4 13.9,47.8 50.1,47.8 50.1,25.4 				"/>
			</g>
			<g class="st1">
				<path d="M29.4,26.9v15.8h-9.3V26.9H29.4 M30.9,25.4H18.6v18.8h12.3V25.4L30.9,25.4z"/>
			</g>
			<g class="st1">
				<rect x="33.9" y="25.4" width="10.6" height="1.5"/>
			</g>
			<g class="st1">
				<rect x="33.9" y="29.8" width="10.6" height="1.5"/>
			</g>
			<g class="st1">
				<rect x="33.9" y="34.1" width="10.6" height="1.5"/>
			</g>
			<g class="st1">
				<rect x="33.9" y="38.4" width="10.6" height="1.5"/>
			</g>
			<g class="st1">
				<rect x="33.9" y="42.7" width="10.6" height="1.5"/>
			</g>
		</g>
	</g>
	<path d="M25.5,19.2c2.5,0.8,4.9,1.3,7.1,1.3c2.2,0,4.3-0.4,6.2-1.2l9.9,9.9l-4.1,4.1l-1.4-1.1l-2.4-2v3.1V45H23.4V33.2v-3.6
		l-2.6,2.5l-2,2l-3.5-4L25.5,19.2 M39.1,17.5c-2.1,1-4.3,1.5-6.6,1.5c-2.4,0-4.9-0.5-7.5-1.5L13.2,30l5.5,6.3l3.2-3.1v13.4h20.4
		V33.3l2.5,2l6.1-6.1L39.1,17.5L39.1,17.5z"/>
</g>
</svg>
