<svg id="Layer_1" data-name="Layer 1" xmlns="http://www.w3.org/2000/svg" viewBox="0 0 64 64"><title>UX code</title><path d="M32,2A30,30,0,1,1,2,32,30.09,30.09,0,0,1,32,2m0-2A32,32,0,1,0,64,32,32,32,0,0,0,32,0Z"/><circle cx="17.8" cy="19.3" r="0.8"/><circle cx="20.2" cy="19.3" r="0.8"/><circle cx="22.5" cy="19.3" r="0.8"/><path d="M15.4,22.5H50.1V16.2H13.9v6.3Zm0-4.8H48.6V21H15.4Z"/><polygon points="48.6 25.4 48.6 46.3 15.4 46.3 15.4 25.4 13.9 25.4 13.9 47.8 50.1 47.8 50.1 25.4 48.6 25.4"/><path d="M29.4,26.9V42.7H20.1V26.9h9.3m1.5-1.5H18.6V44.2H30.9V25.4Z"/><rect x="33.9" y="25.4" width="10.6" height="1.5"/><rect x="33.9" y="29.8" width="10.6" height="1.5"/><rect x="33.9" y="34.1" width="10.6" height="1.5"/><rect x="33.9" y="38.4" width="10.6" height="1.5"/><rect x="33.9" y="42.7" width="10.6" height="1.5"/></svg>