<svg id="Layer_1" data-name="Layer 1" xmlns="http://www.w3.org/2000/svg" viewBox="0 0 64 64"><title>WebAds code</title><path d="M32,2A30,30,0,1,1,2,32,30.09,30.09,0,0,1,32,2m0-2A32,32,0,1,0,64,32,32,32,0,0,0,32,0Z"/><circle cx="17.8" cy="19.3" r="0.8"/><circle cx="20.2" cy="19.3" r="0.8"/><circle cx="22.5" cy="19.3" r="0.8"/><circle cx="25.7" cy="24.1" r="0.8"/><circle cx="25.7" cy="26.5" r="0.8"/><circle cx="25.7" cy="28.9" r="0.8"/><circle cx="25.7" cy="31.3" r="0.8"/><circle cx="25.7" cy="33.6" r="0.8"/><circle cx="25.7" cy="36" r="0.8"/><circle cx="25.7" cy="38.4" r="0.8"/><circle cx="28.1" cy="38.4" r="0.8"/><circle cx="30.4" cy="38.4" r="0.8"/><circle cx="32.8" cy="38.4" r="0.8"/><circle cx="35.2" cy="38.4" r="0.8"/><circle cx="37.6" cy="38.4" r="0.8"/><circle cx="40" cy="38.4" r="0.8"/><circle cx="42.3" cy="38.4" r="0.8"/><circle cx="44.7" cy="38.4" r="0.8"/><circle cx="47.1" cy="38.4" r="0.8"/><path d="M33.1,32.2H31.3l-.4,2.1H29.6L31.8,25h1.1l2.2,9.3H33.7Zm-1.5-1.3h1.3l-.4-2.2-.2-1.5h0L32,28.7Z"/><path d="M35.9,25.1a.6.6,0,0,0,.4-.1h1.4a3.34,3.34,0,0,1,1.5.3,2.4,2.4,0,0,1,1,1,3.81,3.81,0,0,1,.5,1.5,11.08,11.08,0,0,1,.2,1.9,10.28,10.28,0,0,1-.1,1.8,5.27,5.27,0,0,1-.5,1.5,3.46,3.46,0,0,1-1,1.1,2.54,2.54,0,0,1-1.6.4H35.9Zm2,1.4h-.7v6.4h.6a1.14,1.14,0,0,0,.8-.3,1.79,1.79,0,0,0,.5-.7,3.59,3.59,0,0,0,.2-1.1c0-.4.1-.8.1-1.3a4.87,4.87,0,0,0-.1-1.2,3,3,0,0,0-.2-1,1.79,1.79,0,0,0-.5-.7A5.64,5.64,0,0,0,37.9,26.5Z"/><path d="M44.8,32a1.45,1.45,0,0,0-.2-.7,2.65,2.65,0,0,0-.5-.6,1.79,1.79,0,0,0-.7-.5c-.2-.2-.5-.4-.7-.6a1.93,1.93,0,0,1-.5-.9,3.73,3.73,0,0,1-.2-1.2,3.59,3.59,0,0,1,.2-1.1,2.18,2.18,0,0,1,.5-.8,1.61,1.61,0,0,1,.7-.4,2.77,2.77,0,0,1,.9-.1,3.08,3.08,0,0,1,1,.1,2,2,0,0,1,.8.4l-.4,1.5a2.19,2.19,0,0,0-.5-.3,2,2,0,0,0-.8-.1.85.85,0,0,0-.6.2c-.2.1-.2.3-.2.6a1.85,1.85,0,0,0,.2.7,1.21,1.21,0,0,0,.5.5,1.79,1.79,0,0,0,.7.5,4.62,4.62,0,0,1,.7.7,2.62,2.62,0,0,1,.5.9,3.7,3.7,0,0,1,0,2.4,4.05,4.05,0,0,1-.5.9,3,3,0,0,1-.7.5,2.51,2.51,0,0,1-1,.2,5,5,0,0,1-1.2-.2,1.51,1.51,0,0,1-.8-.4l.4-1.5a1.63,1.63,0,0,0,.6.3,2.35,2.35,0,0,0,.8.2A1.17,1.17,0,0,0,44.8,32Z"/><path d="M13.9,16.2V47.9H50.1V16.2Zm34.7,1.5V21H15.4V17.7ZM15.4,46.3V22.5H48.6V46.3Z"/></svg>